<?xml version="1.0" encoding="UTF-8"?><svg id="Layer_1" xmlns="http://www.w3.org/2000/svg" viewBox="0 0 300 68"><path d="m29.97,31.17c1.66.89,3.05,2.11,4.15,3.6,1.05,1.49,1.77,3.38,2.05,5.54.22,2.05-.11,3.99-1,5.71-2.77,5.37-9.2,8.31-15.46,8.48-2.88-.11-5.21-1-6.98-2.71-1.77-1.66-2.83-3.66-3.1-5.87-.72-5.99,10.14-35.24,11.19-35.24,2.49,0,5.32,2.38,5.6,4.93.06.33-4.32,10.86-4.82,12.24,6.37-2.05,14.07-6.98,18.17-12.24,4.04-5.21.5-9.42-5.65-9.92-.94-.11-1.61-.11-1.88-.11-7.15,0-15.79,4.6-21.39,10.19-3.71,3.71-5.98,7.76-6.26,10.75-7.2-1.88-4.43-8.48-1.77-12.19C8.25,6.68,21.38.53,29.19.53c8.42,0,19.45,8.48,14.9,16.95-2.88,5.37-9.14,10.19-14.13,13.68Zm-9.31,4.05c-.39-.39-.78-.83-1.16-1.38-.94,2.71-1.72,5.32-2.27,7.81-.55,2.55-.78,4.54-.55,6.09.17,1.38,1.16,1.94,2.44,1.99,4.76.33,11.64-3.82,13.8-7.76.61-1.16,1.05-2.33.89-3.43-.78-5.21-9.31-2.71-11.86-2.71-.39-.06-.83-.22-1.27-.61Z"/><path d="m60.44,35.72c-1.55,3.77-4.43,11.41-7.2,14.02-1.55,1.77-8.98,1.38-10.92-.89-4.38-4.32,1.39-22.05,3.21-26.59.55-1.44,9.09-.06,8.59,1.77-2.83,6.15-8.86,23.22-4.88,23.38,3.27.11,6.98-9.42,8.37-12.8.33-.89,3.1.44,2.83,1.11Zm-10.69-26.32c2.33-1.83,8.42.55,8.31,2.55-.17,1.22-5.37,5.87-5.32,8.03-7.48-1.94-4.27-7.31-2.99-10.58Z"/><path d="m80.6,47.41c3.32.11,6.98-9.42,8.37-12.8.39-.89,3.16.44,2.88,1.11-1.61,3.77-4.6,11.41-7.37,13.96-1.55,1.77-8.81,1.44-10.75-.83-3.05-2.99-1.05-13.02,1.05-20.39-1.88,2.33-4.04,5.32-6.04,8.59-2.38,3.94-4.49,8.26-5.6,12.58,0,1.94-5.54.78-6.04-3.1-1.05-8.09,1.11-16.46,3.71-24.16.5-1.44,9.09-.5,8.7,1.33-1.44,3.66-4.21,9.36-5.15,14.85.61-1.05,1.16-2.11,1.77-3.1,4.54-7.42,9.92-13.3,11.14-14.57.66-1.27,7.7,3.05,7.04,5.37-2.05,7.76-7.04,21.05-3.71,21.16Z"/><path d="m123.32,35.72c-3.66,8.81-7.04,14.29-15.29,17.79-3.6,7.98-8.64,14.13-15.68,13.96-2.88-.05-5.15-1.83-5.54-4.71-.44-3.6,2.16-6.59,5.37-7.92,1.99-.83,4.21-1.27,6.54-1.77.83-.17,1.66-.33,2.44-.55,1.05-3.16,1.83-6.48,2.44-9.86-1.11,2.27-2.22,4.32-3.38,5.76-2.55,3.27-9.42,2.44-10.97-.72-3.49-7.15,1.05-23.1,7.98-26.21.67-.33,5.15-2.05,10.8,1.83.22-.61.44-1.27.72-1.88.55-1.38,9.09,0,8.59,1.77-3.82,8.37-4.6,17.79-7.59,26.04,4.88-2.94,7.76-7.37,10.75-14.63.39-.89,3.16.44,2.83,1.11Zm-23.44,20.22l-.55.11c-2.16.44-4.21.89-6.04,1.61-1.83.78-3.77,2.55-3.49,4.71.22,1.33,1.27,2.05,2.6,2.05,2.99,0,5.43-3.43,7.48-8.48Zm7.15-29.7c-1.16-1-2.11-1.44-2.88-1.44-4.32-.06-11.63,22.6-7.92,22.72,3.16.11,9.59-17.73,10.8-21.28Z"/><path d="m159.71,8.12c-5.82,5.21-23.33,39.78-9.81,40.5,4.93.22,12.36-5.32,15.9-14.02.39-.89,3.16.44,2.83,1.11-5.26,12.69-15.01,19.72-22.33,19.23-20.44-1.33-3.49-43.44,8.7-52.25,1.83-1.33,3.49-1.99,4.93-1.99,2.88,0,8.86,3.21,9.25,6.21.5,3.88-3.6,16.4-7.59,16.4-1.05,0-3.16-1.11-3.21-2.33,2.55.61,7.98-9.97,6.43-13.57-.33-.72-.94-1.05-1.88-1.05-.89,0-1.94.55-3.21,1.77Z"/><path d="m169.18,25.47c-2.66-1.72-2.22-6.21-.33-9.7,2.38-1.83,6.43,0,6.26,2-.06.44-.78,2.33-2.11,5.98,4.27.94,5.65-1.77,6.32-1.83,1.72-.17,7.48,3.55,6.87,5.6-2.05,7.81-7.54,19.78-4.21,19.89,3.6.11,7.65-9.59,8.98-12.8.39-.89,3.16.44,2.83,1.11-1.94,4.71-4.15,10.64-7.76,14.02-1.72,1.38-8.98,1.38-10.97-.89-3.43-3.38-.22-15.12,2.22-22.22-1.72.5-3.66.44-5.32.06l-3.6,9.69c-.17.39-3.05-.61-2.83-1.16.72-1.77,2.22-5.82,3.66-9.75Z"/><path d="m210.68,42.64c2.55-.05,5.6-1.72,7.2-5.65l.94-2.38c.33-.89,3.1.44,2.83,1.11-.28.78-.61,1.5-.94,2.22-2.33,5.37-6.37,7.7-9.97,7.76-.78.06-1.61-.06-2.33-.22-.83,1.17-1.77,2.66-2.94,3.55-3.32,2.66-11.03,2.11-13.3-2.44-4.38-8.37.17-21.39,6.81-25.26,3.88-1.66,10.53-.5,12.25,2.27,2.99,4.43,1.88,12.8-1.16,19,.17,0,.39.05.61.05Zm-2.33-8.97c.89-5.1.39-9.92-2.38-9.92-3.27,0-7.59,11.47-8.14,18.67-.33,3.82.72,5.43,2.22,5.43,1.5-.06,3.44-1.66,4.99-4.38-3.55-2.88-1.83-10.36,3.32-9.81Z"/><path d="m235.94,42.03c0,10.97-20.33,12.74-20.11-.78,0-1.27.33-2.6.89-3.93.78-1.66,5.98,1.33,5.32,2.55-.61,1.22-.89,2.38-.89,3.49-.05,2.66,1.66,4.27,3.44,4.27,1.77.06,3.66-1.44,3.99-4.88.33-3.93-3.05-8.2-4.93-12.3l-2.22,5.93c-.17.39-3.05-.61-2.83-1.16l4.04-10.92c.5-1.77,2-3.43,4.93-4.99,1.5-.72,6.7,4.71,5.71,5.54-4.27,3.43,2.66,10.19,2.66,17.17Z"/><path d="m251.47,22.14c2.44-2.88,10.69-.72,11.52,3.99,1.44,7.87-2.99,20.94-9.09,23.66-.66.39-4.88,2-10.25-1.44,0,.33-.06.66-.06,1-.17,1.88-5.65.44-5.93-3.43-.66-8.64,4.82-31.64,8.14-40,.55-1.38,9.09,0,8.59,1.83-2.66,5.76-5.32,14.02-7.31,22.16,1.55-3.32,3.16-6.32,4.38-7.76Zm-7.42,22.94c1.22.94,2.11,1.38,2.94,1.38,4.27.06,11.58-22.6,7.87-22.66-3.1-.11-9.53,17.62-10.8,21.22v.06Z"/><path d="m297.15,34.61c.39-.89,3.16.44,2.83,1.11-3.66,8.81-7.04,14.29-15.29,17.79-3.6,7.98-8.64,14.13-15.68,13.96-2.88-.05-5.15-1.83-5.54-4.71-.44-3.6,2.16-6.59,5.37-7.92,2-.83,4.21-1.27,6.54-1.77.83-.17,1.66-.33,2.44-.55.89-2.66,1.55-5.49,2.16-8.31-1,2.05-1.99,3.77-2.88,4.77-2.49,2.77-9.09,2.55-11.3.22-4.49-4.27,1.11-23.1,2.77-27.65.55-1.44,9.09-.28,8.64,1.55-2.66,6.2-8.48,24.38-4.54,24.43,2.83,0,9.03-16.29,11.52-22.88.33-1.11.72-2.16,1.16-3.27.55-1.38,9.09,0,8.59,1.77-3.82,8.37-4.54,17.84-7.54,26.09,4.88-2.94,7.76-7.37,10.75-14.63Zm-20.61,21.33l-.55.11c-2.16.44-4.21.89-6.04,1.61-1.83.78-3.77,2.55-3.49,4.71.22,1.33,1.27,2.05,2.6,2.05,2.99,0,5.43-3.43,7.48-8.48Z"/></svg>