<?xml version="1.0" encoding="UTF-8"?><svg id="Layer_1" xmlns="http://www.w3.org/2000/svg" viewBox="0 0 36 36"><defs><style>.cls-1{fill:#fff;}</style></defs><path class="cls-1" d="m6.37,24.62c-1.04-.04-1.91-.38-2.57-1.02-.64-.6-1.04-1.37-1.15-2.2-.15-1.24,1.06-5.11,2.08-7.78-.02.02-.05.05-.07.07-.93.93-1.39,1.85-1.44,2.35l-.11,1.16-1.12-.29c-1.19-.31-1.67-1-1.86-1.53-.48-1.32.42-2.78.82-3.35,1.71-2.4,5.66-4.2,8.05-4.2,1.84,0,3.92,1.16,4.84,2.7.66,1.11.71,2.32.12,3.41-.69,1.28-1.92,2.41-3.13,3.33.11.12.21.24.31.37.4.57.65,1.25.75,1.98.08.77-.05,1.51-.38,2.15-.87,1.68-2.87,2.8-5.1,2.86h-.03s-.03,0-.03,0Zm.52-5.14c-.08.29-.15.57-.21.84-.09.42-.14.77-.15,1.02.96-.08,2.27-.94,2.64-1.62.12-.22.13-.31.13-.34-.02,0-.16-.06-.52-.06s-.71.05-1.04.09c-.3.04-.55.07-.73.07h-.12Zm1.6-8.1c.4.4.68.91.74,1.46.04.22.05.26-.46,1.52.96-.59,1.82-1.31,2.37-2.02.22-.28.31-.53.25-.67-.09-.2-.49-.42-1.1-.47-.24-.03-.38-.03-.44-.03-.42,0-.88.07-1.36.21Z"/><path class="cls-1" d="m14.45,23.62c-.43,0-1.87-.06-2.58-.9-1.86-1.83.61-8.05.72-8.32.1-.25.31-.54.77-.68-.42-.94,0-1.92.27-2.57l.21-.52.21-.17c.32-.25.75-.39,1.24-.39.8,0,1.74.37,2.22.88.37.39.43.78.41,1.04-.06.5-.33.82-.78,1.34-.2.24-.57.68-.68.89v.13c.05.05.1.1.14.15.23.3.3.67.21,1.02l-.02.08-.03.07c-.27.58-.55,1.3-.8,2.02.18-.35.57-.59,1.02-.59s1.11.27,1.42.73l.29.44-.18.58-.15.38c-.65,1.6-1.29,3.09-2.06,3.82-.4.46-1.23.57-1.84.57Z"/><path class="cls-1" d="m23.04,23.61c-.42,0-1.83-.06-2.53-.89-.16-.16-.57-.55-.65-1.73-.23.52-.41,1.01-.54,1.48-.08.55-.54,1.06-1.34,1.06-.97,0-2.11-.75-2.27-1.97-.32-2.5.36-4.98,1.06-7.08.2-.57.75-.86,1.65-.86.3,0,1.8.04,2.39.77.01.02.02.03.04.05.29-.34.51-.57.61-.68.21-.27.53-.42.9-.42.77,0,1.91.75,2.41,1.43.43.57.41,1.06.33,1.37-.11.4-.24.87-.39,1.36.22-.25.53-.39.89-.39.46,0,1.12.27,1.43.73l.29.44-.19.58-.16.38c-.66,1.58-1.32,3.05-2.08,3.77-.47.5-1.27.6-1.87.6Z"/><path class="cls-1" d="m26.35,28.18c-1.29-.02-2.31-.91-2.48-2.15-.15-1.18.48-2.31,1.58-2.97-.36-.22-.64-.52-.82-.87-.75-1.54-.39-3.8.14-5.28.34-.95,1.13-2.63,2.53-3.26.1-.05.6-.27,1.35-.27.54,0,1.09.11,1.62.34.26-.21.65-.32,1.15-.32.02,0,1.9.01,2.55.88.22.3.3.67.2,1.02l-.02.07-.03.07c-.29.64-.52,1.32-.71,2.01.22-.22.52-.35.85-.35.48,0,1.14.28,1.44.76l.29.47-.23.59c-1.04,2.5-2.07,4.13-4.35,5.2-1.3,2.7-2.97,4.07-4.97,4.07h-.1Z"/><path d="m9.22,17.22c.46.24.84.58,1.14.99.29.41.49.93.56,1.52.06.56-.03,1.1-.27,1.57-.76,1.48-2.53,2.29-4.25,2.33-.79-.03-1.43-.27-1.92-.75-.49-.46-.78-1.01-.85-1.61-.2-1.65,2.79-9.69,3.08-9.69.69,0,1.46.65,1.54,1.36.02.09-1.19,2.99-1.33,3.37,1.75-.56,3.87-1.92,5-3.37,1.11-1.43.14-2.59-1.55-2.73-.26-.03-.44-.03-.52-.03-1.97,0-4.34,1.26-5.88,2.8-1.02,1.02-1.65,2.13-1.72,2.96-1.98-.52-1.22-2.33-.49-3.35,1.49-2.1,5.1-3.79,7.25-3.79,2.32,0,5.35,2.33,4.1,4.66-.79,1.48-2.51,2.8-3.88,3.76Zm-2.56,1.11c-.11-.11-.21-.23-.32-.38-.26.75-.47,1.46-.62,2.15-.15.7-.21,1.25-.15,1.68.05.38.32.53.67.55,1.31.09,3.2-1.05,3.79-2.13.17-.32.29-.64.24-.94-.21-1.43-2.56-.75-3.26-.75-.11-.02-.23-.06-.35-.17Z"/><path d="m17.6,18.47c-.43,1.04-1.22,3.14-1.98,3.85-.43.49-2.47.38-3-.24-1.2-1.19.38-6.06.88-7.31.15-.4,2.5-.02,2.36.49-.78,1.69-2.44,6.38-1.34,6.43.9.03,1.92-2.59,2.3-3.52.09-.24.85.12.78.3Zm-2.94-7.24c.64-.5,2.32.15,2.28.7-.05.34-1.48,1.61-1.46,2.21-2.06-.53-1.17-2.01-.82-2.91Z"/><path d="m23.14,21.69c.91.03,1.92-2.59,2.3-3.52.11-.24.87.12.79.3-.44,1.04-1.26,3.14-2.03,3.84-.43.49-2.42.4-2.95-.23-.84-.82-.29-3.58.29-5.61-.52.64-1.11,1.46-1.66,2.36-.65,1.08-1.23,2.27-1.54,3.46,0,.53-1.52.21-1.66-.85-.29-2.22.3-4.52,1.02-6.64.14-.4,2.5-.14,2.39.37-.4,1.01-1.16,2.57-1.42,4.08.17-.29.32-.58.49-.85,1.25-2.04,2.73-3.66,3.06-4.01.18-.35,2.12.84,1.93,1.48-.56,2.13-1.93,5.79-1.02,5.82Z"/><path d="m34.89,18.47c-1.01,2.42-1.93,3.93-4.2,4.89-.99,2.19-2.38,3.88-4.31,3.84-.79-.01-1.42-.5-1.52-1.29-.12-.99.59-1.81,1.48-2.18.55-.23,1.16-.35,1.8-.49.23-.05.46-.09.67-.15.29-.87.5-1.78.67-2.71-.3.62-.61,1.19-.93,1.58-.7.9-2.59.67-3.02-.2-.96-1.97.29-6.35,2.19-7.2.18-.09,1.42-.56,2.97.5.06-.17.12-.35.2-.52.15-.38,2.5,0,2.36.49-1.05,2.3-1.26,4.89-2.09,7.16,1.34-.81,2.13-2.03,2.95-4.02.11-.24.87.12.78.3Zm-6.44,5.56l-.15.03c-.59.12-1.16.24-1.66.44-.5.21-1.04.7-.96,1.29.06.37.35.56.72.56.82,0,1.49-.94,2.06-2.33Zm1.97-8.16c-.32-.27-.58-.4-.79-.4-1.19-.02-3.2,6.21-2.18,6.25.87.03,2.64-4.87,2.97-5.85Z"/></svg>