<?xml version="1.0" encoding="UTF-8"?><svg id="Layer_1" xmlns="http://www.w3.org/2000/svg" viewBox="0 0 32 32"><path d="m0,6.86C0,4.33,2.05,2.29,4.57,2.29h6.86c1.26,0,2.29,1.02,2.29,2.29s-1.02,2.29-2.29,2.29h-6.86v20.57h20.57v-6.86c0-1.26,1.02-2.29,2.29-2.29s2.29,1.02,2.29,2.29v6.86c0,2.52-2.05,4.57-4.57,4.57H4.57c-2.52,0-4.57-2.05-4.57-4.57V6.86ZM18.29,2.29c0-1.26,1.02-2.29,2.29-2.29h9.08c.37,0,.67.06.94.17.21.11.52.27.74.49,0,0,0,0,0,.01.44.44.6,1.02.66,1.6h0v9.15c0,1.26-1.02,2.29-2.29,2.29s-2.29-1.02-2.29-2.29v-3.62l-12.1,12.09c-.89.89-2.33.89-3.23,0s-.89-2.33,0-3.23l12.09-12.1h-3.62c-1.26,0-2.29-1.02-2.29-2.29Z"/></svg>